<svg xmlns="http://www.w3.org/2000/svg" width="36" height="36" viewBox="0 0 36 36"><defs><style>.a{fill:none;}.b{fill:#575757;}</style></defs><g transform="translate(0)"><g transform="translate(0)"><rect class="a" width="36" height="36" transform="translate(0)"/></g><g transform="translate(2.961 5.922)"><path class="b" d="M25.76,29.6a1.474,1.474,0,0,1-2.087,0l-3.138-3.138a1.474,1.474,0,0,1,0-2.087h0a1.474,1.474,0,0,1,2.087,0l2.087,2.087,5.241-5.241a1.474,1.474,0,0,1,2.087,0h0a1.474,1.474,0,0,1,0,2.087Zm-8.838-1.91H4.961A2.97,2.97,0,0,1,2,24.726V6.961A2.97,2.97,0,0,1,4.961,4H28.647a2.97,2.97,0,0,1,2.961,2.961V16.85a10.351,10.351,0,0,0-14.8,9.356A9.821,9.821,0,0,0,16.922,27.686Zm-.9-10.851a1.5,1.5,0,0,0,1.569,0l10.466-6.543A1.257,1.257,0,1,0,26.723,8.16l-9.919,6.2L6.885,8.16a1.257,1.257,0,1,0-1.332,2.132Z" transform="translate(-2 -4)"/></g></g></svg>