<svg xmlns="http://www.w3.org/2000/svg" width="24" height="24" viewBox="0 0 24 24"><defs><style>.a{fill:none;}.b{fill:#fff;}</style></defs><g transform="translate(-0.333)"><rect class="a" width="24" height="24" transform="translate(0.333)"/><g transform="translate(2 3)"><path class="b" d="M6.5,21H3a1,1,0,0,1-1-1V10A1,1,0,0,1,3,9H6.5a1,1,0,0,1,1,1V20A1,1,0,0,1,6.5,21ZM13.75,3h-3.5a1,1,0,0,0-1,1V20a1,1,0,0,0,1,1h3.5a1,1,0,0,0,1-1V4A1,1,0,0,0,13.75,3ZM21,11H17.5a1,1,0,0,0-1,1v8a1,1,0,0,0,1,1H21a1,1,0,0,0,1-1V12A1,1,0,0,0,21,11Z" transform="translate(-2 -3)"/></g></g></svg>