<svg xmlns="http://www.w3.org/2000/svg" width="24" height="24" viewBox="0 0 24 24"><defs><style>.a{fill:none;}.b{fill:#fff;}</style></defs><rect class="a" width="24" height="24"/><path class="b" d="M20,6H12L10.59,4.59A2.006,2.006,0,0,0,9.17,4H4A2,2,0,0,0,2.01,6L2,18a2.006,2.006,0,0,0,2,2H20a2.006,2.006,0,0,0,2-2V8A2.006,2.006,0,0,0,20,6ZM7.12,15.29,5.71,13.88a1,1,0,0,1,0-1.41h0a1,1,0,0,1,1.41,0l.71.71,2.83-2.83a1,1,0,0,1,1.41,0h0a1,1,0,0,1,0,1.41L8.53,15.3A1,1,0,0,1,7.12,15.29ZM17.41,13l.88.88a1,1,0,0,1,0,1.41h0a1,1,0,0,1-1.41,0L16,14.41l-.88.88a1,1,0,0,1-1.41,0h0a1,1,0,0,1,0-1.41l.88-.88-.88-.88a1,1,0,0,1,0-1.41h0a1,1,0,0,1,1.41,0l.88.88.88-.88a1,1,0,0,1,1.41,0h0a1,1,0,0,1,0,1.41Z"/></svg>