<svg xmlns="http://www.w3.org/2000/svg" width="24" height="24" viewBox="0 0 24 24"><defs><style>.a{fill:none;}.b{fill:#fff;}</style></defs><path class="a" d="M0,0H24V24H0Z"/><path class="b" d="M7,10H5V8A1,1,0,0,0,3,8v2H1a1,1,0,0,0,0,2H3v2a1,1,0,0,0,2,0V12H7a1,1,0,0,0,0-2Zm11,1a3,3,0,1,0-.91-5.86A4.934,4.934,0,0,1,17.99,8a5.031,5.031,0,0,1-.9,2.86A2.99,2.99,0,0,0,18,11Zm-5,0a3,3,0,1,0-3-3A2.987,2.987,0,0,0,13,11Zm0,2c-2,0-6,1-6,3v1a1,1,0,0,0,1,1H18a1,1,0,0,0,1-1V16C19,14,15,13,13,13Zm6.62.16A3.7,3.7,0,0,1,21,16v1.5a2.734,2.734,0,0,1-.05.5H23.5a.5.5,0,0,0,.5-.5V16C24,14.46,21.63,13.51,19.62,13.16Z"/></svg>