<svg xmlns="http://www.w3.org/2000/svg" xmlns:xlink="http://www.w3.org/1999/xlink" width="194.72" height="90.399" viewBox="0 0 194.72 90.399"><defs><style>.a{fill:#3e4b93;}.b{fill:url(#a);}.c{fill:#045793;}.d{fill:#575757;}</style><linearGradient id="a" y1="0.5" x2="1" y2="0.5" gradientUnits="objectBoundingBox"><stop offset="0" stop-color="#3b4a99"/><stop offset="0.08" stop-color="#3b5da2"/><stop offset="0.26" stop-color="#3b7fb4"/><stop offset="0.43" stop-color="#3a99c1"/><stop offset="0.61" stop-color="#3aacca"/><stop offset="0.8" stop-color="#3ab7d0"/><stop offset="1" stop-color="#3abbd2"/></linearGradient></defs><path class="a" d="M0,222.691V204.41H3.809a31.41,31.41,0,0,1,6.04.4,8.713,8.713,0,0,1,3.1,1.335,7.816,7.816,0,0,1,2.634,3.1,10.791,10.791,0,0,1,0,8.629,7.789,7.789,0,0,1-2.634,3.1,8.575,8.575,0,0,1-3.02,1.32,25.292,25.292,0,0,1-5.27.393H0Zm4.932-4.1h.837a6.317,6.317,0,0,0,4.286-1.208,4.888,4.888,0,0,0,1.347-3.83,4.959,4.959,0,0,0-1.347-3.845,6.185,6.185,0,0,0-4.286-1.208H4.932Z" transform="translate(0 -142.674)"/><path class="a" d="M60.64,222.691V204.41h11.2v4.008H65.5v3.171h5.98v3.926H65.5V218.6h6.342v4.1Z" transform="translate(-42.325 -142.674)"/><path class="a" d="M101.886,215.772a8.982,8.982,0,0,0,2.193,1.888,4.289,4.289,0,0,0,2.153.622,2.483,2.483,0,0,0,1.643-.535,1.7,1.7,0,0,0,.643-1.362,1.788,1.788,0,0,0-.556-1.4,6.985,6.985,0,0,0-2.516-1.018,8.178,8.178,0,0,1-3.8-1.888,4.434,4.434,0,0,1-1.111-3.183,5.612,5.612,0,0,1,1.752-4.277,6.357,6.357,0,0,1,4.554-1.655,10.021,10.021,0,0,1,2.863.4,9.284,9.284,0,0,1,2.564,1.232l-1.561,3.582a6.56,6.56,0,0,0-1.74-1.093,4.645,4.645,0,0,0-1.767-.368,2.338,2.338,0,0,0-1.462.432,1.332,1.332,0,0,0-.562,1.105,1.356,1.356,0,0,0,.492,1.1,5.276,5.276,0,0,0,1.906.785l.223.063a9.288,9.288,0,0,1,4.008,1.812,4.4,4.4,0,0,1,.988,1.616,6.21,6.21,0,0,1,.338,2.093,6.064,6.064,0,0,1-1.912,4.675,7.21,7.21,0,0,1-5.1,1.767,8.97,8.97,0,0,1-3.479-.649,9.825,9.825,0,0,1-3.02-2.036Z" transform="translate(-69.539 -141.661)"/><path class="a" d="M160.84,204.12v5.436a7.45,7.45,0,0,0-2.042-1.667,4.642,4.642,0,0,0-2.178-.532,4.479,4.479,0,0,0-3.479,1.468,5.5,5.5,0,0,0-1.329,3.827,5.134,5.134,0,0,0,1.356,3.648,4.53,4.53,0,0,0,3.452,1.45,4.642,4.642,0,0,0,2.178-.532,7.406,7.406,0,0,0,2.042-1.679V221a11.925,11.925,0,0,1-2.359.861,10.009,10.009,0,0,1-2.374.3,10.172,10.172,0,0,1-2.767-.356,7.882,7.882,0,0,1-2.329-1.081,9.191,9.191,0,0,1-3.12-3.458,10.063,10.063,0,0,1-1.075-4.7,10.269,10.269,0,0,1,.68-3.815,9.308,9.308,0,0,1,2.057-3.114,8.5,8.5,0,0,1,2.927-2,9.565,9.565,0,0,1,3.624-.661,10.009,10.009,0,0,1,2.374.287A11.736,11.736,0,0,1,160.84,204.12Z" transform="translate(-102.474 -141.674)"/><path class="a" d="M215.249,212.639a9.29,9.29,0,0,1-2.836,6.78,9.981,9.981,0,0,1-10.683,2.078,9.568,9.568,0,0,1-3.153-2.078,9.275,9.275,0,0,1-2.141-3.1,9.384,9.384,0,0,1,2.141-10.465,9.617,9.617,0,0,1,3.153-2.078,10,10,0,0,1,7.505,0,9.686,9.686,0,0,1,3.177,2.078,9.363,9.363,0,0,1,2.836,6.783Zm-9.764,5.37a4.385,4.385,0,0,0,3.428-1.525,6.089,6.089,0,0,0-.021-7.68,4.579,4.579,0,0,0-6.835,0,6.179,6.179,0,0,0-.021,7.7A4.391,4.391,0,0,0,205.485,218.009Z" transform="translate(-136.581 -141.724)"/><path class="a" d="M284.685,222.691h-4.657l-1.081-7.9c-.076-.559-.145-1.178-.205-1.863s-.121-1.426-.169-2.235a22.625,22.625,0,0,1-.689,2.9c-.072.242-.127.42-.16.535l-2.486,8.568h-3.322l-2.486-8.568c-.033-.115-.082-.3-.148-.535a20.152,20.152,0,0,1-.689-2.884c-.048.689-.109,1.374-.175,2.054s-.145,1.353-.236,2.03l-1.075,7.9H262.48L265.3,204.41h4.932l2.76,9.426c.015.069.048.175.1.326a12.238,12.238,0,0,1,.486,2.159,9.021,9.021,0,0,1,.187-1.078c.091-.4.217-.873.375-1.432l2.785-9.4h4.947Z" transform="translate(-183.205 -142.674)"/><path class="a" d="M347.869,222.691H343.2V204.41h5.207a20.708,20.708,0,0,1,4.295.3,5.044,5.044,0,0,1,2.1,1.024,5.4,5.4,0,0,1,1.54,2.09,7.055,7.055,0,0,1,.532,2.794,7.406,7.406,0,0,1-.522,2.878,5.038,5.038,0,0,1-1.549,2.042,4.881,4.881,0,0,1-1.812.861,15.254,15.254,0,0,1-3.359.263h-1.749Zm0-10.054h.948a4.6,4.6,0,0,0,2.51-.492,1.945,1.945,0,0,0,.713-1.679,1.85,1.85,0,0,0-.7-1.637,4.544,4.544,0,0,0-2.471-.486h-1Z" transform="translate(-239.546 -142.674)"/><path class="a" d="M392.63,222.691V204.41h4.983v14.011h6.194v4.271Z" transform="translate(-274.047 -142.674)"/><path class="a" d="M433.88,222.691V204.41h5.032v18.281Z" transform="translate(-302.838 -142.674)"/><path class="a" d="M471.083,204.141v5.436a7.505,7.505,0,0,0-2.045-1.667,4.642,4.642,0,0,0-2.178-.532,4.479,4.479,0,0,0-3.479,1.477,5.5,5.5,0,0,0-1.329,3.827,5.134,5.134,0,0,0,1.356,3.648,4.53,4.53,0,0,0,3.452,1.45,4.642,4.642,0,0,0,2.178-.532,7.461,7.461,0,0,0,2.045-1.679v5.458a12.018,12.018,0,0,1-2.362.861,10.008,10.008,0,0,1-2.374.3,10.133,10.133,0,0,1-2.764-.356,7.853,7.853,0,0,1-2.332-1.081,9.19,9.19,0,0,1-3.12-3.458,10.1,10.1,0,0,1-1.075-4.7,10.268,10.268,0,0,1,.68-3.815,9.308,9.308,0,0,1,2.057-3.114,8.5,8.5,0,0,1,2.927-2,9.566,9.566,0,0,1,3.624-.661,10.009,10.009,0,0,1,2.374.287A11.828,11.828,0,0,1,471.083,204.141Z" transform="translate(-319.015 -141.694)"/><path class="a" d="M504.42,222.691l6.306-18.281h6.252l6.318,18.281h-4.965l-.924-3.271h-7.073l-.948,3.271Zm6.98-6.832h4.974l-1.86-6.04c-.06-.184-.139-.477-.239-.885s-.23-.933-.387-1.574c-.109.447-.214.876-.32,1.284s-.208.8-.3,1.175Z" transform="translate(-352.074 -142.674)"/><path class="a" d="M564.275,222.691V208.729h-4.1V204.41h13.174v4.319h-4.1v13.963Z" transform="translate(-390.993 -142.674)"/><path class="a" d="M607.63,222.691V204.41h11.2v4.008H612.49v3.171h5.98v3.926h-5.98V218.6h6.342v4.1Z" transform="translate(-424.112 -142.674)"/><path class="a" d="M437.329,175.635a2.153,2.153,0,0,0-3.02.45,2,2,0,0,0-.3.571h0a2.029,2.029,0,0,0-.06.233l-1.072,4.141a.807.807,0,0,0-.069.263h0a.858.858,0,0,0,.356.758.84.84,0,0,0,1.117-.115l3.162-2.863a2.027,2.027,0,0,0,.266-.245h0a2.356,2.356,0,0,0,.154-.19,2.15,2.15,0,0,0-.532-3Z" transform="translate(-302.087 -122.291)"/><path class="b" d="M288.111,12.927a20.906,20.906,0,0,0-7.04-8.291,23.223,23.223,0,0,0-8.291-3.57Q268.059,0,256.685,0H246.51V29.571h13.177V10.909h2.235q7.838,0,11.444,3.268t3.6,10.269q0,7.01-3.6,10.226a13.408,13.408,0,0,1-7.167,2.936v11.03a42.619,42.619,0,0,0,6.8-.855,22.99,22.99,0,0,0,8.073-3.519,20.906,20.906,0,0,0,7.04-8.291,26.274,26.274,0,0,0,2.4-11.528A26.793,26.793,0,0,0,288.111,12.927Z" transform="translate(-172.058)"/><path class="c" d="M257.368,118.387c-.359-.091-.722-.157-1.084-.23s-.728-.124-1.093-.175-.731-.094-1.1-.136-.734-.069-1.1-.1c-.734-.051-1.471-.088-2.208-.1q-2.206-.05-4.41.1c-.734.048-1.465.1-2.2.175l-.843.091q.1-.462.163-.906c.106-.743.175-1.474.22-2.208.024-.362.042-.728.057-1.09s.021-.728.027-1.093c.018-.725,0-1.45,0-2.175-.027-1.447-.091-2.89-.2-4.331s-.3-2.368-.519-3.8c-.148,1.441-.205,2.365-.3,3.8l-.3,4.295c-.1,1.429-.22,2.851-.365,4.259-.082.7-.16,1.4-.278,2.078-.06.338-.124.674-.2.988a3.847,3.847,0,0,1-.278.809l-.822,1.468,1.691-.22c.7-.091,1.42-.187,2.132-.263s1.435-.163,2.15-.23c1.435-.148,2.872-.269,4.31-.371l1.078-.066,1.081-.054c.719-.033,1.441-.054,2.159-.06a34.4,34.4,0,0,1,4.346.187A14.977,14.977,0,0,0,257.368,118.387Z" transform="translate(-167.885 -71.48)"/><path class="c" d="M268.048,116.055c-.23-.088-.456-.178-.686-.26-.459-.169-.93-.3-1.4-.429a18.46,18.46,0,0,0-2.908-.5,19.755,19.755,0,0,0-2.96-.051c-.5.033-.988.076-1.48.142l-.257.042c.033-.13.063-.263.088-.393a12.479,12.479,0,0,0,.205-1.583c.018-.26.03-.519.042-.779s0-.519,0-.779c0-.516-.021-1.03-.048-1.543-.06-1.024-.163-2.045-.3-3.056-.076-.5-.154-1.009-.254-1.51s-.2-1-.326-1.51l-.021.767-.015.788-.033,1.51c-.024,1.012-.048,2.021-.094,3.02s-.109,2-.223,2.975a14.172,14.172,0,0,1-.239,1.426,4.434,4.434,0,0,1-.432,1.223l-.831,1.4,1.595-.4.317-.072.338-.069c.227-.042.456-.082.686-.118.459-.069.921-.133,1.389-.178.93-.1,1.87-.148,2.812-.163s1.888.018,2.839.085c.474.036.951.076,1.429.13.242.021.477.057.719.088s.477.066.722.091C268.495,116.248,268.271,116.148,268.048,116.055Z" transform="translate(-178.591 -72.485)"/><path class="c" d="M277.584,117.278a2.773,2.773,0,0,0-.381-.239,4.337,4.337,0,0,0-.828-.329,9.57,9.57,0,0,0-1.734-.323,16.131,16.131,0,0,0-1.749-.079c-.387,0-.767.021-1.154.045a2.622,2.622,0,0,1,.036-.269c.024-.281.042-.556.048-.831.015-.55,0-1.093-.024-1.637s-.069-1.081-.127-1.622-.136-1.078-.242-1.616c-.076.541-.127,1.081-.175,1.619s-.085,1.078-.124,1.613-.079,1.069-.121,1.6c-.024.263-.048.526-.082.779-.018.13-.036.254-.057.371a.581.581,0,0,1-.039.166l-.018.072a.374.374,0,0,0-.021.051l-.214.664.655-.057c.55-.048,1.12-.088,1.682-.118s1.13-.048,1.691-.057a15.632,15.632,0,0,1,1.682.057,5.853,5.853,0,0,1,.825.13,2.646,2.646,0,0,1,.4.124c.069.024.127.057.193.088s.121.076.184.112A1.511,1.511,0,0,0,277.584,117.278Z" transform="translate(-188.859 -77.043)"/><path class="d" d="M144.36,283.555h1.072v4.3h.489v-4.3H147v-.465H144.36Z" transform="translate(-100.76 -197.59)"/><path class="d" d="M166.7,285.451a1.151,1.151,0,0,0,.529-.447,1.247,1.247,0,0,0,.184-.683,1.178,1.178,0,0,0-.269-.788,1.256,1.256,0,0,0-.695-.417,6.014,6.014,0,0,0-1.087-.063H164.4v4.763h.48V285.6h.272l1.731,2.211h.6l-1.731-2.211a2.48,2.48,0,0,0,.939-.154Zm-1.812-.3V283.53h.849a2.15,2.15,0,0,1,.707.085.743.743,0,0,1,.344.281.761.761,0,0,1,.133.435.821.821,0,0,1-.13.447.749.749,0,0,1-.362.3,2.075,2.075,0,0,1-.713.091Z" transform="translate(-114.747 -197.562)"/><path class="d" d="M187.464,283.09l-2.274,4.763h.547l.749-1.567h2.072l.758,1.567h.519l-2.244-4.763Zm-.767,2.736.825-1.725.822,1.725Z" transform="translate(-129.258 -197.59)"/><path class="d" d="M215.82,283.09,213.884,287l-1.957-3.908h-.079l-.689,4.763h.465l.471-3.431,1.725,3.431h.121l1.7-3.407.474,3.407h.471l-.692-4.763Z" transform="translate(-147.385 -197.59)"/><rect class="d" width="0.48" height="4.766" transform="translate(72.763 85.5)"/><path class="d" d="M253.46,283.555h1.072v4.3h.489v-4.3H256.1v-.465H253.46Z" transform="translate(-176.909 -197.59)"/><path class="d" d="M274.259,283.09,272,287.853h.538l.749-1.567h2.075l.755,1.567h.519l-2.244-4.763Zm-.767,2.736.825-1.725.822,1.725Z" transform="translate(-189.85 -197.59)"/><path class="d" d="M302.583,283.09,300.644,287l-1.957-3.908h-.078l-.689,4.763h.465l.471-3.431,1.725,3.431h.121l1.7-3.407.474,3.407h.471l-.692-4.763Z" transform="translate(-207.941 -197.59)"/><path class="d" d="M329.72,282.687a2.5,2.5,0,0,0-1.256.332,2.443,2.443,0,0,0-.906.906,2.492,2.492,0,0,0-.338,1.275,2.38,2.38,0,0,0,.737,1.755,2.48,2.48,0,0,0,1.812.725,2.443,2.443,0,0,0,1.791-.728,2.489,2.489,0,0,0-1.839-4.265Zm1.812,3.537a1.957,1.957,0,0,1-.743.737,2.087,2.087,0,0,1-1.036.269,1.975,1.975,0,0,1-1.435-.586,1.939,1.939,0,0,1-.6-1.435,2.027,2.027,0,0,1,2.03-2.06,2.041,2.041,0,0,1,1.027.278,1.975,1.975,0,0,1,1.021,1.758,2.057,2.057,0,0,1-.272,1.039Z" transform="translate(-228.392 -197.308)"/><path class="d" d="M356.12,284.932c-.35-.257-.559-.414-.622-.477a1.036,1.036,0,0,1-.239-.317.744.744,0,0,1-.066-.3.571.571,0,0,1,.187-.432.652.652,0,0,1,.474-.175.8.8,0,0,1,.417.115,1.861,1.861,0,0,1,.465.468l.393-.3a2.2,2.2,0,0,0-.628-.6,1.292,1.292,0,0,0-.637-.166,1.208,1.208,0,0,0-.6.148,1.045,1.045,0,0,0-.423.4,1.081,1.081,0,0,0-.151.568,1.178,1.178,0,0,0,.254.728,4.1,4.1,0,0,0,.749.652,3.962,3.962,0,0,1,.825.764.81.81,0,0,1,.163.471.773.773,0,0,1-.109.4.809.809,0,0,1-.326.3.984.984,0,0,1-.453.112c-.378,0-.71-.263-1-.788l-.408.245a2.1,2.1,0,0,0,.658.773,1.422,1.422,0,0,0,.794.233,1.344,1.344,0,0,0,.966-.381,1.208,1.208,0,0,0,.4-.906,1.314,1.314,0,0,0-.233-.716,3.573,3.573,0,0,0-.846-.809Z" transform="translate(-247.349 -197.346)"/><path class="d" d="M393.069,283.152a5.776,5.776,0,0,0-1.111-.069H391v4.763h.48v-2.214h.344a6.311,6.311,0,0,0,1.208-.079,1.26,1.26,0,0,0,.7-.417,1.329,1.329,0,0,0,0-1.571A1.263,1.263,0,0,0,393.069,283.152Zm.3,1.646a.722.722,0,0,1-.359.3,2.114,2.114,0,0,1-.722.091h-.815v-1.616h.852a2.054,2.054,0,0,1,.7.085.731.731,0,0,1,.344.284.779.779,0,0,1,.133.438.791.791,0,0,1-.127.417Z" transform="translate(-272.909 -197.583)"/><path class="d" d="M414.834,282.686a2.486,2.486,0,0,0-1.253.332,2.416,2.416,0,0,0-.906.906,2.519,2.519,0,0,0-.335,1.275,2.368,2.368,0,0,0,.737,1.755,2.474,2.474,0,0,0,1.812.725,2.443,2.443,0,0,0,1.791-.728,2.489,2.489,0,0,0-1.845-4.265Zm1.812,3.537a1.942,1.942,0,0,1-.746.737,2.078,2.078,0,0,1-1.036.269,1.978,1.978,0,0,1-1.435-.586,1.939,1.939,0,0,1-.6-1.435,2.034,2.034,0,0,1,3.06-1.782,1.963,1.963,0,0,1,1.018,1.758,2.054,2.054,0,0,1-.266,1.039Z" transform="translate(-287.803 -197.307)"/><path class="d" d="M443.548,285.451a1.151,1.151,0,0,0,.529-.447,1.247,1.247,0,0,0,.184-.683,1.178,1.178,0,0,0-.269-.788,1.256,1.256,0,0,0-.695-.417,6.015,6.015,0,0,0-1.087-.063h-.96v4.763h.483V285.6h.272l1.731,2.211h.6l-1.731-2.211A2.489,2.489,0,0,0,443.548,285.451Zm-1.812-.3V283.53h.849a2.15,2.15,0,0,1,.707.085.743.743,0,0,1,.344.281.758.758,0,0,1,.13.435.818.818,0,0,1-.127.447.749.749,0,0,1-.362.3,2.075,2.075,0,0,1-.713.091Z" transform="translate(-307.983 -197.562)"/><path class="d" d="M476.94,283.555h1.075v4.3h.489v-4.3h1.075v-.465h-2.64Z" transform="translate(-332.893 -197.59)"/><rect class="d" width="0.48" height="4.766" transform="translate(149.99 85.5)"/></svg>