<svg xmlns="http://www.w3.org/2000/svg" xmlns:xlink="http://www.w3.org/1999/xlink" width="33.905" height="36" viewBox="0 0 33.905 36"><defs><style>.a{fill:url(#a);}.b{fill:#045793;}</style><linearGradient id="a" y1="0.5" x2="1" y2="0.5" gradientUnits="objectBoundingBox"><stop offset="0" stop-color="#3b4a99"/><stop offset="0.08" stop-color="#3b5da2"/><stop offset="0.26" stop-color="#3b7fb4"/><stop offset="0.43" stop-color="#3a99c1"/><stop offset="0.61" stop-color="#3aacca"/><stop offset="0.8" stop-color="#3ab7d0"/><stop offset="1" stop-color="#3abbd2"/></linearGradient></defs><g transform="translate(-72.645)"><g transform="translate(72.645)"><path class="a" d="M277.3,9.568a15.474,15.474,0,0,0-5.211-6.136A17.189,17.189,0,0,0,265.954.789,61.535,61.535,0,0,0,254.041,0H246.51V21.887h9.753V8.075h1.654q5.8,0,8.47,2.419t2.667,7.6q0,5.189-2.667,7.569a9.924,9.924,0,0,1-5.3,2.173V36a31.545,31.545,0,0,0,5.032-.633,17.016,17.016,0,0,0,5.975-2.6,15.474,15.474,0,0,0,5.211-6.136,19.447,19.447,0,0,0,1.777-8.533A19.831,19.831,0,0,0,277.3,9.568Z" transform="translate(-245.173)"/><path class="b" d="M252.993,114.236c-.266-.067-.534-.116-.8-.17s-.539-.092-.809-.13-.541-.069-.814-.1-.543-.051-.816-.072c-.543-.038-1.089-.065-1.634-.074q-1.633-.037-3.264.072c-.543.036-1.084.076-1.627.13l-.624.067q.074-.342.121-.671c.078-.55.13-1.091.163-1.634.018-.268.031-.539.042-.807s.016-.539.02-.809c.013-.537,0-1.073,0-1.61-.02-1.071-.067-2.139-.148-3.206s-.224-1.753-.384-2.812c-.11,1.066-.152,1.75-.224,2.812l-.224,3.179c-.076,1.057-.163,2.11-.27,3.152-.06.519-.118,1.037-.206,1.538-.045.25-.092.5-.15.731a2.847,2.847,0,0,1-.206.6l-.608,1.086,1.252-.163c.516-.067,1.051-.139,1.578-.194s1.062-.121,1.592-.17c1.062-.11,2.126-.2,3.19-.275l.8-.049.8-.04c.532-.025,1.066-.04,1.6-.045a25.46,25.46,0,0,1,3.217.139A11.086,11.086,0,0,0,252.993,114.236Z" transform="translate(-240.53 -79.517)"/><path class="b" d="M264.883,112.884c-.17-.065-.338-.132-.507-.192-.34-.125-.689-.224-1.039-.317a13.663,13.663,0,0,0-2.153-.367,14.621,14.621,0,0,0-2.191-.038c-.367.025-.731.056-1.1.105l-.19.031c.025-.1.047-.194.065-.291a9.236,9.236,0,0,0,.152-1.171c.013-.192.022-.384.031-.577s0-.385,0-.577c0-.382-.016-.762-.036-1.142-.045-.758-.121-1.513-.224-2.262-.056-.373-.114-.747-.188-1.118s-.145-.742-.241-1.118l-.016.568-.011.583-.025,1.118c-.018.749-.036,1.5-.069,2.235s-.081,1.48-.165,2.2a10.491,10.491,0,0,1-.177,1.055,3.282,3.282,0,0,1-.32.905l-.615,1.039,1.18-.3.235-.054.25-.051c.168-.031.338-.06.507-.087.34-.051.682-.1,1.028-.132.689-.074,1.384-.11,2.081-.121s1.4.013,2.1.063c.351.027.7.056,1.057.1.179.016.353.042.532.065s.353.049.534.067C265.214,113.027,265.049,112.953,264.883,112.884Z" transform="translate(-252.441 -80.635)"/><path class="b" d="M275.764,115.486a2.051,2.051,0,0,0-.282-.177,3.209,3.209,0,0,0-.613-.244,7.084,7.084,0,0,0-1.283-.239,11.94,11.94,0,0,0-1.294-.058c-.286,0-.568.016-.854.034a1.942,1.942,0,0,1,.027-.2c.018-.208.031-.411.036-.615.011-.407,0-.809-.018-1.212s-.051-.8-.094-1.2-.1-.8-.179-1.2c-.056.4-.094.8-.13,1.2s-.063.8-.092,1.194-.058.791-.089,1.183c-.018.194-.036.389-.06.577-.013.1-.027.188-.042.275a.431.431,0,0,1-.029.123l-.013.054a.275.275,0,0,0-.016.038l-.159.492.485-.042c.407-.036.829-.065,1.245-.087s.836-.036,1.252-.042a11.569,11.569,0,0,1,1.245.042,4.332,4.332,0,0,1,.61.1,1.958,1.958,0,0,1,.3.092c.051.018.094.042.143.065s.089.056.136.083A1.118,1.118,0,0,0,275.764,115.486Z" transform="translate(-263.862 -85.705)"/></g></g></svg>